<?xml version="1.0" standalone="no"?>
<!DOCTYPE svg PUBLIC "-//W3C//DTD SVG 20010904//EN"
 "http://www.w3.org/TR/2001/REC-SVG-20010904/DTD/svg10.dtd">
<svg version="1.0" xmlns="http://www.w3.org/2000/svg"
 width="2743.000000pt" height="1250.000000pt" viewBox="0 0 2743.000000 1250.000000"
 preserveAspectRatio="xMidYMid meet">

<g transform="translate(0.000000,1250.000000) scale(0.100000,-0.100000)"
fill="#000000" stroke="none">
<path d="M580 12485 c-154 -32 -249 -83 -365 -200 -102 -101 -149 -180 -187
-310 l-23 -80 0 -2395 0 -2395 23 -80 c38 -130 85 -209 187 -311 73 -74 106
-98 175 -132 169 -83 57 -76 1419 -80 801 -1 1233 1 1270 8 131 24 267 124
325 238 55 109 56 115 56 905 l0 727 53 0 52 0 96 -123 c557 -707 1225 -1231
1794 -1406 186 -57 252 -66 460 -65 177 0 196 2 280 27 246 74 417 212 511
412 45 97 63 173 71 291 26 436 -221 761 -803 1056 -203 103 -385 181 -778
332 -425 165 -620 252 -840 375 -585 328 -894 697 -993 1187 -24 122 -24 430
0 561 105 566 465 1027 1020 1307 70 35 179 83 244 106 65 24 122 47 128 52 5
4 -918 8 -2050 7 -1671 -1 -2072 -3 -2125 -14z"/>
<path d="M8200 12484 c-30 -8 -79 -26 -107 -41 -61 -30 -161 -129 -192 -190
-50 -100 -51 -109 -51 -825 l0 -668 -53 0 c-52 0 -53 0 -97 57 -304 389 -761
809 -1141 1048 -372 234 -730 355 -1048 355 -191 0 -303 -25 -456 -103 -61
-31 -102 -62 -171 -131 -78 -78 -98 -105 -137 -186 -83 -172 -97 -339 -43
-498 37 -110 81 -177 186 -282 205 -206 441 -332 1190 -637 514 -209 803 -353
1075 -537 310 -209 527 -420 697 -676 165 -248 252 -500 279 -808 13 -154 1
-354 -32 -514 -87 -431 -343 -795 -744 -1061 -110 -73 -353 -194 -481 -239
-52 -18 -94 -36 -94 -41 0 -4 723 -6 1608 -5 l1607 3 80 23 c408 117 630 460
665 1027 5 84 10 1122 10 2368 l0 2217 -139 0 c-222 0 -362 -33 -541 -127
-449 -234 -910 -878 -1160 -1618 l-37 -110 -51 -3 -52 -3 0 893 c0 964 -1 971
-54 1075 -94 186 -319 289 -516 237z"/>
<path d="M14580 12489 c-25 -5 -77 -24 -116 -44 -81 -39 -167 -124 -202 -197
-53 -109 -52 -94 -52 -1065 l0 -903 -53 0 -53 0 -23 73 c-68 215 -227 571
-348 776 -273 465 -596 793 -914 927 -148 62 -215 76 -411 81 l-178 5 0 -2273
c0 -1495 4 -2312 10 -2384 42 -445 216 -753 505 -896 144 -71 208 -82 460 -83
232 -1 275 4 420 51 170 54 305 142 452 297 152 158 297 400 406 676 72 182
1467 4068 1484 4135 21 80 20 224 -1 305 -52 195 -206 373 -398 459 -137 62
-158 64 -568 67 -206 1 -395 -2 -420 -7z"/>
<path d="M18305 12493 c-293 -45 -495 -239 -495 -474 0 -39 9 -107 20 -151 29
-111 1578 -4306 1644 -4449 177 -387 418 -662 701 -799 231 -113 494 -147 727
-94 362 83 586 364 664 836 14 87 18 203 21 765 l5 661 -767 1434 c-422 788
-792 1471 -823 1518 -215 332 -483 564 -782 677 -36 14 -112 36 -170 50 -99
24 -123 26 -410 28 -168 2 -318 1 -335 -2z"/>
<path d="M22271 12489 c-76 -13 -183 -52 -249 -91 -86 -50 -221 -189 -264
-273 -58 -112 -79 -188 -85 -305 -5 -86 -2 -120 15 -186 15 -62 150 -350 569
-1223 302 -629 553 -1142 559 -1141 11 3 1095 2209 1132 2305 24 64 26 83 26
210 1 128 -2 147 -27 220 -79 226 -268 403 -502 471 -53 16 -120 18 -590 20
-291 1 -554 -2 -584 -7z"/>
<path d="M25620 12485 c-435 -68 -814 -382 -1102 -910 -36 -66 -368 -715 -737
-1442 l-672 -1322 3 -698 c4 -680 4 -701 26 -806 53 -249 144 -437 278 -571
108 -108 217 -169 373 -209 l86 -22 1475 0 c1658 0 1521 -6 1690 77 69 34 102
58 175 132 74 74 99 107 132 176 86 175 78 -83 78 2575 l0 2360 -22 85 c-84
317 -327 534 -648 580 -109 15 -1031 11 -1135 -5z"/>
<path d="M15953 10202 c-238 -675 -433 -1231 -433 -1235 0 -4 401 -7 891 -7
770 0 890 2 887 14 -7 32 -903 2456 -908 2456 -3 0 -200 -553 -437 -1228z"/>
<path d="M15327 8438 c-8 -24 -82 -234 -165 -468 -82 -234 -156 -450 -163
-480 -9 -33 -14 -102 -13 -175 1 -99 6 -136 28 -208 90 -298 305 -498 624
-580 86 -22 96 -22 792 -22 639 0 711 2 773 18 203 52 373 161 491 317 63 83
92 138 127 242 27 78 33 113 37 213 6 161 0 183 -203 733 l-168 452 -1073 0
-1072 0 -15 -42z"/>
<path d="M3563 5975 c-387 -71 -686 -366 -768 -757 -20 -92 -19 -279 1 -376 9
-45 297 -840 691 -1907 371 -1007 681 -1843 688 -1860 9 -22 14 -26 19 -15 27
66 1307 3711 1322 3765 15 56 19 103 18 240 0 156 -2 178 -28 260 -99 325
-303 536 -613 632 l-88 27 -585 3 c-450 1 -601 -1 -657 -12z"/>
<path d="M6860 5976 c-119 -35 -211 -96 -319 -212 -201 -215 -386 -579 -614
-1209 -125 -344 -1069 -3031 -1128 -3210 -162 -491 -215 -778 -175 -948 37
-156 123 -268 257 -332 141 -67 117 -66 1089 -63 l875 3 95 32 c319 108 509
363 597 803 15 78 17 252 20 2130 4 2012 2 2229 -28 2398 -58 338 -185 536
-383 598 -69 21 -228 27 -286 10z"/>
<path d="M9775 5975 c-420 -78 -676 -424 -724 -980 -14 -161 -15 -3835 -1
-3994 41 -461 238 -803 544 -941 104 -47 185 -62 311 -58 93 3 119 8 167 30
71 33 146 102 182 167 54 101 56 121 56 929 l0 742 53 0 53 0 59 -73 c209
-253 491 -550 718 -753 464 -415 876 -653 1289 -746 86 -19 131 -23 278 -23
151 0 186 3 260 23 167 46 289 113 394 218 86 86 145 186 182 309 25 81 27
105 27 240 0 134 -2 159 -26 238 -53 173 -126 287 -277 430 -201 192 -514 363
-1050 575 -113 44 -311 122 -440 173 -255 101 -614 275 -778 379 -604 381
-880 839 -859 1430 9 265 57 452 177 695 84 168 172 294 302 430 155 163 337
297 548 404 117 60 337 151 364 151 8 0 18 5 21 10 10 16 -1741 12 -1830 -5z"/>
<path d="M15040 5972 c-162 -54 -265 -155 -311 -303 -18 -57 -19 -101 -19
-740 l0 -679 -54 0 -53 0 -49 63 c-229 293 -590 646 -889 872 -716 538 -1407
677 -1841 369 -181 -128 -294 -345 -294 -563 0 -274 160 -493 515 -706 194
-117 407 -214 945 -432 301 -121 613 -268 795 -373 661 -379 1056 -856 1175
-1415 28 -131 38 -421 20 -573 -78 -671 -512 -1173 -1255 -1453 l-100 -38
1605 -1 c1564 0 1607 1 1687 20 289 69 496 273 601 592 84 254 77 19 80 2667
l2 2353 -182 -4 c-203 -6 -282 -22 -436 -94 -472 -218 -952 -872 -1224 -1667
l-33 -97 -52 0 -53 0 -2 938 -3 937 -24 57 c-47 115 -149 213 -269 259 -79 31
-208 36 -282 11z"/>
<path d="M21353 5975 c-158 -43 -277 -156 -324 -306 -18 -58 -19 -106 -19
-980 l0 -919 -54 0 -54 0 -28 83 c-71 217 -193 494 -304 694 -150 268 -288
458 -465 641 -202 210 -406 344 -620 408 -79 23 -112 27 -272 32 l-183 4 0
-2313 c0 -2480 -1 -2409 50 -2609 54 -212 131 -354 264 -485 111 -110 220
-171 368 -205 88 -20 115 -22 334 -18 223 4 245 6 329 31 382 114 673 425 889
952 91 225 1496 4150 1507 4213 62 354 -193 698 -573 776 -106 22 -765 22
-845 1z"/>
<path d="M24960 5974 c-95 -25 -161 -64 -230 -133 -69 -71 -110 -142 -135
-237 -18 -68 -19 -173 -4 -229 17 -60 1440 -3915 1516 -4105 184 -461 334
-724 505 -885 92 -87 170 -129 282 -151 67 -14 90 -15 148 -4 193 34 345 190
377 388 8 48 11 728 9 2422 l-3 2355 -23 75 c-64 206 -189 354 -377 445 -158
77 -130 75 -1127 74 -741 0 -892 -3 -938 -15z"/>
<path d="M340 5744 c-140 -38 -254 -148 -312 -300 l-23 -59 -3 -2345 c-2
-1561 1 -2371 7 -2423 35 -266 208 -482 463 -580 l83 -32 960 0 960 0 58 23
c126 51 236 165 287 299 31 80 38 210 15 288 -25 86 -1412 3844 -1512 4095
-188 475 -361 773 -531 915 -140 117 -302 159 -452 119z"/>
<path d="M22808 3692 l-435 -1237 890 -3 c490 -1 892 -1 894 1 3 3 -903 2467
-910 2473 -2 2 -199 -554 -439 -1234z"/>
<path d="M22196 1962 c-16 -27 -331 -940 -343 -997 -18 -86 -13 -262 11 -350
65 -238 249 -449 476 -545 162 -68 110 -64 910 -68 708 -3 727 -3 817 18 337
77 591 349 644 691 12 78 7 215 -11 284 -6 22 -88 250 -183 507 l-172 468
-1072 0 c-589 0 -1074 -4 -1077 -8z"/>
</g>
</svg>
