<svg width="52" height="44" viewBox="0 0 52 44" fill="none" xmlns="http://www.w3.org/2000/svg">
<path d="M15.5489 25.3572C15.5489 27.5978 14.969 29.3244 13.8091 30.537C12.6492 31.7232 10.9622 32.3163 8.74791 32.3163C6.53364 32.3163 4.84658 31.7232 3.68672 30.537C2.52687 29.3244 1.94694 27.5978 1.94694 25.3572V23.1825C1.94694 21.8381 2.15782 20.6782 2.57959 19.7029C3.00135 18.7012 3.68672 17.9367 4.6357 17.4095C2.84319 16.4342 1.94694 14.5758 1.94694 11.8343V10.9644C1.94694 8.7238 2.52687 7.01038 3.68672 5.82416C4.84658 4.61158 6.53364 4.0053 8.74791 4.0053C10.9622 4.0053 12.6492 4.61158 13.8091 5.82416C14.969 7.01038 15.5489 8.7238 15.5489 10.9644V11.8343C15.5489 14.5494 14.6526 16.4078 12.8601 17.4095C13.8091 17.9367 14.4945 18.7012 14.9162 19.7029C15.338 20.6782 15.5489 21.8381 15.5489 23.1825V25.3572ZM6.2964 25.2386C6.2964 26.4775 6.53364 27.3079 7.00813 27.7296C7.48261 28.1514 8.06254 28.3623 8.74791 28.3623C9.43328 28.3623 10 28.1514 10.4482 27.7296C10.9226 27.3079 11.1731 26.4775 11.1994 25.2386V22.6684C11.1994 21.5613 10.9754 20.7705 10.5272 20.296C10.1055 19.7952 9.51236 19.5447 8.74791 19.5447C7.98346 19.5447 7.37717 19.7952 6.92905 20.296C6.50728 20.7705 6.2964 21.5613 6.2964 22.6684V25.2386ZM6.2964 12.6647C6.2964 13.7718 6.52046 14.5363 6.96859 14.958C7.44307 15.3798 8.03618 15.5907 8.74791 15.5907C9.43328 15.5907 10.0132 15.3798 10.4877 14.958C10.9622 14.5363 11.1994 13.7718 11.1994 12.6647V11.1226C11.1994 9.88366 10.9622 9.0533 10.4877 8.63154C10.0132 8.18341 9.43328 7.95935 8.74791 7.95935C8.06254 7.95935 7.48261 8.18341 7.00813 8.63154C6.53364 9.0533 6.2964 9.88366 6.2964 11.1226V12.6647ZM18.1777 4.32162H22.5272V28.0459H29.684V32H18.1777V4.32162ZM45.5058 16.6187H50.8042V19.7029H45.5058V25.1199H42.4216V19.7029H37.1232V16.6187H42.4216V11.2808H45.5058V16.6187Z" fill="#1E1E1E"/>
</svg>
